<?xml version="1.0" encoding="UTF-8" standalone="no"?>
<!-- Created with Inkscape (http://www.inkscape.org/) -->

<svg
   width="599.97412"
   height="599.91321"
   viewBox="0 0 158.74315 158.72704"
   version="1.1"
   id="svg5"
   inkscape:version="1.2 (1:1.2.1+202207142221+cd75a1ee6d)"
   sodipodi:docname="drawing-1.svg"
   xmlns:inkscape="http://www.inkscape.org/namespaces/inkscape"
   xmlns:sodipodi="http://sodipodi.sourceforge.net/DTD/sodipodi-0.dtd"
   xmlns="http://www.w3.org/2000/svg"
   xmlns:svg="http://www.w3.org/2000/svg">
  <sodipodi:namedview
     id="namedview7"
     pagecolor="#ffffff"
     bordercolor="#000000"
     borderopacity="0.25"
     inkscape:showpageshadow="2"
     inkscape:pageopacity="0.0"
     inkscape:pagecheckerboard="0"
     inkscape:deskcolor="#d1d1d1"
     inkscape:document-units="mm"
     showgrid="false"
     inkscape:zoom="0.9597522"
     inkscape:cx="296.43068"
     inkscape:cy="701.74364"
     inkscape:window-width="2560"
     inkscape:window-height="1312"
     inkscape:window-x="0"
     inkscape:window-y="27"
     inkscape:window-maximized="1"
     inkscape:current-layer="g2034" />
  <defs
     id="defs2" />
  <g
     inkscape:label="Layer 1"
     inkscape:groupmode="layer"
     id="layer1"
     transform="translate(18.959151,-69.79734)">
    <g
       id="g2034">
      <g
         id="g2627"
         transform="translate(398.3656,42.707365)">
        <path
           style="fill:none;stroke:#4d4d4d;stroke-width:0.3;stroke-dasharray:none;paint-order:markers fill stroke"
           d="m 79.435141,69.126148 0.167504,158.747712 v 0"
           id="path1056" />
        <path
           style="fill:none;stroke:#4d4d4d;stroke-width:0.3;stroke-dasharray:none;paint-order:markers fill stroke"
           d="m 130.39732,69.126158 0.16753,158.747692 v 0"
           id="path1784" />
        <path
           style="fill:none;stroke:#4d4d4d;stroke-width:0.3;stroke-dasharray:none;paint-order:markers fill stroke"
           d="m 184.37386,173.9234 -158.747732,0.14146 v 0"
           id="path1972" />
        <path
           style="fill:none;stroke:#4d4d4d;stroke-width:0.3;stroke-dasharray:none;paint-order:markers fill stroke"
           d="M 183.38381,118.93534 24.63608,119.0768 v 0"
           id="path1974" />
      </g>
      <g
         id="g3573"
         transform="translate(-36.012377,-3.8690183)">
        <g
           id="g2620"
           transform="matrix(1.0028413,0,0,0.9984994,-7.4260656,4.892818)"
           style="stroke:#4d4d4d;stroke-opacity:0.798961"
           inkscape:export-filename="g2620.svg"
           inkscape:export-xdpi="96"
           inkscape:export-ydpi="96">
          <path
             style="fill:none;stroke:#4d4d4d;stroke-width:1.7;stroke-dasharray:none;stroke-opacity:0.798961;paint-order:markers fill stroke"
             d="m 77.80227,69.67706 c -0.09081,2.819907 -0.181536,5.637256 -0.272356,7.452966 -0.09082,1.815709 -0.181559,2.630009 -0.226798,3.354897 -0.04524,0.724887 -0.04524,1.360035 -0.0907,2.324662 -0.04546,0.964626 -0.136209,2.258925 -0.05061,3.169489 0.0856,0.910564 0.345796,1.436663 0.47511,1.815945 0.129314,0.379283 0.129314,0.612283 0.209885,1.645527 0.08057,1.033243 0.241462,2.86652 0.368522,3.875211 0.127061,1.00869 0.218952,1.192475 0.264105,1.63562 0.04515,0.443145 0.04515,1.14618 0.09115,2.686276 0.046,1.540096 0.137893,3.917167 0.183786,6.948457 0.04589,3.0313 0.04589,6.71693 0.04589,9.8922 0,3.17526 0,5.84016 0,7.75574 0,1.91558 0,3.08185 -0.04621,3.80229 -0.04621,0.72044 -0.138103,0.99612 -0.183786,1.86271 -0.04568,0.86659 -0.04568,2.32303 -0.09189,3.14235 -0.04621,0.81932 -0.138103,1.00311 -0.183785,1.37033 -0.04568,0.36722 -0.04568,0.91629 -0.182621,1.64692 -0.13694,0.73063 -0.410306,1.64375 -0.546736,2.36606 -0.136429,0.72232 -0.136429,1.25289 -0.181804,1.56222 -0.04538,0.30934 -0.136123,0.40008 -0.181497,2.15273 -0.04537,1.75264 -0.04537,5.16454 9.62e-4,7.05451 0.04634,1.88997 0.138228,2.25754 0.183785,2.67082 0.04556,0.41329 0.04556,0.87275 0.0923,1.19464 0.04674,0.32189 0.138631,0.50567 0.183785,0.95957 0.04515,0.4539 0.04515,1.17843 0.137391,1.9542 0.09224,0.77577 0.27602,1.60232 0.367571,3.48391 0.09155,1.8816 0.09155,4.81867 0.04542,6.56206 -0.04613,1.7434 -0.138018,2.2936 -0.229759,4.77088 -0.09174,2.47727 -0.183634,6.88116 -0.229553,9.58855 -0.04592,2.70739 -0.04592,3.71821 -0.09213,4.36093 -0.04621,0.64272 -0.138105,0.9184 -0.183787,1.65293 -0.04568,0.73452 -0.04568,1.92684 -0.04568,3.94733 0,2.0205 0,4.86918 0,9.55052 0,4.68133 0,11.19532 0,15.90781 0,4.71249 0,7.62349 0.0375,9.32947 0.0375,1.70598 0.112065,2.20663 0.194182,2.50275 0.08212,0.29613 0.169688,0.38804 0.250714,0.70326 0.08103,0.31522 0.157686,0.85351 0.233924,1.38883"
             id="path2526" />
          <path
             style="fill:none;stroke:#4d4d4d;stroke-width:1.7;stroke-dasharray:none;stroke-opacity:0.798961;paint-order:markers fill stroke"
             d="m 130.15788,69.076458 c -0.0912,0.37759 -0.18196,0.753282 -0.2271,2.487655 -0.0452,1.734373 -0.0452,4.826672 0.0931,6.97035 0.13819,2.143678 0.41387,3.338285 0.59684,4.4764 0.18298,1.138115 0.27371,2.219977 0.41113,3.26641 0.13742,1.046434 0.3212,2.057256 0.41282,3.616917 0.0916,1.55966 0.0916,3.66854 0.0916,6.591329 0,2.922788 0,6.659481 0,9.354871 0,2.69539 0,4.34946 -0.0461,5.63581 -0.0461,1.28636 -0.13796,2.20529 -0.18379,4.59465 -0.0458,2.38936 -0.0458,6.24887 -0.0458,9.1435 0,2.89462 0,4.82437 -0.0921,6.29438 -0.0921,1.47002 -0.27587,2.48084 -0.4135,3.03112 -0.13763,0.55029 -0.22956,0.64223 -0.27551,0.82734 -0.0459,0.18511 -0.0459,0.46079 -0.0919,0.64323 -0.0459,0.18244 -0.13786,0.27438 -0.22991,0.64306 -0.0921,0.36867 -0.18394,1.01193 -0.27594,1.42486 -0.092,0.41292 -0.1839,0.59673 -0.22958,1.28672 -0.0457,0.68999 -0.0457,1.8846 -0.0917,3.49151 -0.046,1.60692 -0.1379,3.62625 -0.18379,5.96843 -0.0459,2.34218 -0.0459,5.00708 -0.0459,6.98277 0,1.9757 0,3.2622 0.0462,4.18131 0.0462,0.9191 0.13809,1.47047 0.18378,2.84868 0.0457,1.37822 0.0457,3.58365 0.0457,5.14468 0,1.56104 0,2.47769 0.0467,3.02816 0.0467,0.55047 0.13863,0.73428 0.18379,1.78848 0.0452,1.0542 0.0452,2.97934 0.0915,4.12592 0.0463,1.14659 0.13823,1.51417 0.18379,2.11124 0.0456,0.59707 0.0456,1.42411 0.18352,3.45942 0.13796,2.0353 0.41364,5.27868 0.55135,7.76332 0.13772,2.48463 0.13772,4.21073 -0.0457,5.80623 -0.18344,1.5955 -0.54986,3.06118 -0.73283,4.16083 -0.18298,1.09964 -0.18298,1.83246 -0.22806,2.24262 -0.0451,0.41017 -0.13531,0.50041 -0.22654,0.82026 -0.0912,0.31984 -0.18312,0.86719 -0.22888,1.73725 -0.0458,0.87007 -0.0458,2.06234 -0.0458,3.75141 0,1.68907 0,3.87493 0.088,6.29213 0.088,2.41719 0.26366,5.06555 0.36885,6.50253 0.10519,1.43699 0.13959,1.66243 0.17354,1.88489"
             id="path2530" />
          <path
             style="fill:none;stroke:#4d4d4d;stroke-width:1.7;stroke-dasharray:none;stroke-opacity:0.798961;paint-order:markers fill stroke"
             d="m 26.08407,173.54174 c 1.317691,0.45743 2.632201,0.91375 3.894229,1.0959 1.262028,0.18215 2.472317,0.0914 3.332231,0.0461 0.859915,-0.0453 1.369241,-0.0453 1.981906,-0.13684 0.612664,-0.0916 1.329461,-0.27423 2.106341,-0.36532 0.77688,-0.0911 1.613045,-0.0911 2.075204,-0.13362 0.462159,-0.0425 0.552915,-0.12755 1.686776,-0.17001 1.133862,-0.0425 3.308292,-0.0425 5.957176,0.0495 2.648885,0.092 5.772079,0.27576 7.425753,0.41431 1.653673,0.13854 1.837473,0.23044 3.346582,0.2756 1.50911,0.0452 4.344073,0.0452 8.189748,-8.2e-4 3.845675,-0.046 8.702112,-0.13787 12.396604,-0.18379 3.694493,-0.0459 6.226989,-0.0459 7.859635,-0.18345 1.632647,-0.13754 2.366635,-0.41206 3.145273,-0.59513 0.778639,-0.18306 1.601069,-0.27496 2.103554,-0.36699 0.502485,-0.092 0.68625,-0.18392 1.338337,-0.2296 0.652087,-0.0457 1.770889,-0.0457 2.374018,0.002 0.603129,0.0473 0.690685,0.1392 1.323767,0.1838 0.633082,0.0446 1.811637,0.0446 2.493065,0.0913 0.681428,0.0467 0.86523,0.13863 1.274521,0.18379 0.40929,0.0452 1.04461,0.0452 1.63593,0.13701 0.59132,0.0919 1.13811,0.27453 1.91549,0.36533 0.77739,0.0908 1.7859,0.0908 2.84169,0.18294 1.0558,0.0922 2.15852,0.27594 3.39086,0.36758 1.23234,0.0916 2.59467,0.0916 3.36799,0.13838 0.77331,0.0467 0.95712,0.13864 2.24335,0.18379 1.28624,0.0452 3.67545,0.0452 4.91598,0.0924 1.24054,0.0472 1.33247,0.13918 1.74313,0.1838 0.41066,0.0446 1.14008,0.0446 2.19356,0.13672 1.05348,0.0921 2.43072,0.27587 3.85367,0.32154 1.42294,0.0457 2.89207,-0.0462 3.67133,-0.13801 0.77926,-0.0918 0.8712,-0.18373 1.33198,-0.22968 0.46079,-0.0459 1.28783,-0.0459 3.37657,-0.0919 2.08873,-0.046 5.43925,-0.13788 8.30395,-0.18379 2.86471,-0.0459 5.24354,-0.0459 6.75413,-0.13805 1.51059,-0.0921 2.15384,-0.27593 3.39305,-0.41359 1.2392,-0.13765 3.07359,-0.22954 4.99756,-0.32143 1.92397,-0.0919 3.9375,-0.18378 6.40063,-0.22967 2.46313,-0.0459 5.37573,-0.0459 7.98472,-0.0459 2.60899,0 4.91438,0 7.21713,0"
             id="path2534" />
          <path
             style="fill:none;stroke:#4d4d4d;stroke-width:1.7;stroke-dasharray:none;stroke-opacity:0.798961;paint-order:markers fill stroke"
             d="m 24.40994,123.17864 c 0.526398,0 1.05015,0 1.310702,-0.0402 0.260552,-0.0402 0.260552,-0.12328 0.34943,-0.16613 0.08888,-0.0429 0.263987,-0.0429 0.580635,-0.13503 0.316648,-0.0922 0.776115,-0.27595 1.787308,-0.5056 1.011194,-0.22964 2.573373,-0.50532 3.952034,-0.64298 1.378661,-0.13765 2.573271,-0.13765 4.227151,-0.27564 1.653879,-0.13798 3.767419,-0.41366 5.942963,-0.55135 2.175545,-0.13769 4.412716,-0.13769 5.928215,-7.3e-4 1.515498,0.13697 2.308792,0.4098 2.887782,0.54567 0.578989,0.13587 0.944204,0.13587 1.310827,0.1822 0.366623,0.0463 0.734203,0.13823 1.267742,0.18379 0.533539,0.0456 1.23351,0.0456 1.675645,0.0923 0.442135,0.0467 0.625936,0.13863 1.452708,0.18379 0.826772,0.0451 2.297059,0.0451 4.818314,0.0451 2.521256,0 6.093483,0 8.24558,0.0461 2.152097,0.0461 2.883792,0.13802 3.66185,0.18379 0.778059,0.0458 1.602773,0.0458 2.291073,0.13818 0.6883,0.0924 1.239658,0.27621 2.362996,0.36758 1.123337,0.0914 2.819184,0.0914 4.250262,0.12891 1.431077,0.0376 2.597224,0.11248 3.548025,0.24214 0.9508,0.12965 1.685946,0.31344 2.804647,0.40495 1.118701,0.0915 2.621431,0.0915 5.162917,0.0915 2.541486,0 6.121734,0 10.845694,-0.1379 4.72395,-0.1379 10.59173,-0.41358 14.49057,-0.55136 3.89883,-0.13778 5.82859,-0.13778 7.25047,-0.18326 1.42188,-0.0455 2.33617,-0.13621 3.47284,-0.18146 1.13666,-0.0452 2.4954,-0.0452 3.39868,-0.13627 0.90329,-0.091 1.35241,-0.2725 1.84466,-0.36297 0.49224,-0.0905 1.02631,-0.0905 1.38387,-0.13611 0.35756,-0.0456 0.54019,-0.13637 1.50528,-0.18148 0.96509,-0.0451 2.71105,-0.0451 4.68385,-0.0451 1.97281,0 4.17245,0 6.00021,0 1.82776,0 3.28363,0 4.10372,0.0467 0.82008,0.0467 1.00389,0.13864 1.77279,0.22983 0.76889,0.0912 2.12328,0.18309 2.89169,0.32216 0.76842,0.13907 0.95107,0.32286 1.45302,0.41342 0.50194,0.0906 1.32317,0.0906 1.82594,0.13731 0.50277,0.0467 0.68657,0.13863 1.23708,0.18379 0.55052,0.0452 1.4683,0.0452 2.01876,0.0919 0.55045,0.0467 0.7331,0.13864 1.5432,0.13777 0.8101,-8.8e-4 2.24839,-0.0928 4.20369,-0.27602 1.95531,-0.18324 4.42778,-0.45773 6.59905,-0.54883 2.17127,-0.0911 4.0409,7.9e-4 5.90776,0.0926"
             id="path2600" />
        </g>
      </g>
    </g>
  </g>
</svg>
