<?xml version="1.0" encoding="UTF-8" standalone="no"?>
<!-- Created with Inkscape (http://www.inkscape.org/) -->

<svg
   width="93.383789"
   height="91.821709"
   viewBox="0 0 24.707793 24.294494"
   version="1.1"
   id="svg5"
   inkscape:version="1.2 (1:1.2.1+202207142221+cd75a1ee6d)"
   sodipodi:docname="board.svg"
   xmlns:inkscape="http://www.inkscape.org/namespaces/inkscape"
   xmlns:sodipodi="http://sodipodi.sourceforge.net/DTD/sodipodi-0.dtd"
   xmlns="http://www.w3.org/2000/svg"
   xmlns:svg="http://www.w3.org/2000/svg">
  <sodipodi:namedview
     id="namedview7"
     pagecolor="#ffffff"
     bordercolor="#000000"
     borderopacity="0.25"
     inkscape:showpageshadow="2"
     inkscape:pageopacity="0.0"
     inkscape:pagecheckerboard="0"
     inkscape:deskcolor="#d1d1d1"
     inkscape:document-units="mm"
     showgrid="false"
     inkscape:zoom="0.9597522"
     inkscape:cx="852.30333"
     inkscape:cy="597.55008"
     inkscape:window-width="2560"
     inkscape:window-height="1312"
     inkscape:window-x="0"
     inkscape:window-y="27"
     inkscape:window-maximized="1"
     inkscape:current-layer="g2034" />
  <defs
     id="defs2" />
  <g
     inkscape:label="Layer 1"
     inkscape:groupmode="layer"
     id="layer1"
     transform="translate(-44.674472,-136.01788)">
    <path
       id="path4655"
       style="fill:none;stroke:#4d4d4d;stroke-width:1.7;stroke-dasharray:none;stroke-opacity:0.798961;paint-order:markers fill stroke"
       d="m 45.315383,136.83659 c 0.799146,0.91735 1.595515,1.83197 2.361613,2.61069 0.766099,0.77872 1.501163,1.42187 2.420008,2.29495 0.918845,0.87307 2.021479,1.97585 2.848405,2.84892 0.826925,0.87307 1.378471,1.51591 1.884122,2.02107 0.505651,0.50515 0.965203,0.87281 1.700155,1.60817 0.222798,0.22292 0.475981,0.48481 0.740523,0.75861 l -10.998295,10.69392 c 3.520311,-3.08302 7.038265,-6.16386 9.532235,-8.55814 0.673143,-0.64623 1.268971,-1.24082 1.802474,-1.78903 0.521485,0.53758 1.082328,1.10675 1.634009,1.60558 0.207173,0.18733 0.411158,0.36151 0.611332,0.52814 l -2.183846,-2.19677 c 1.40904,-1.45175 2.360811,-2.56471 3.028239,-3.37344 0.370673,-0.44914 0.651148,-0.80228 0.870748,-1.08779 l -4.237985,4.12017 z m 16.251722,7.96488 2.244307,-2.18178 c -0.0848,0.0485 -0.176981,0.1006 -0.249597,0.14367 -0.514147,0.30491 -0.70136,0.482 -0.840259,0.5705 -0.138898,0.0885 -0.229462,0.0855 -0.277502,0.12816 -0.04804,0.0427 -0.05083,0.13346 -0.243396,0.44855 -0.115601,0.18917 -0.3037,0.46205 -0.633553,0.8909 z m 2.244307,-2.18178 c 0.515632,-0.29458 1.227846,-0.68694 1.973006,-1.24385 0.867713,-0.64849 1.762863,-1.51053 2.213819,-2.09393 0.450954,-0.5834 0.460443,-0.88774 0.469738,-1.18959 z m -3.959448,8.83978 8.018632,8.06669 c -0.168369,-0.17515 -0.339551,-0.3528 -0.426331,-0.5302 -0.08678,-0.1774 -0.08664,-0.35422 -0.313676,-0.80771 -0.227034,-0.45349 -0.683227,-1.18413 -1.203544,-1.76371 -0.520317,-0.57959 -1.10609,-1.00736 -1.400431,-1.26349 -0.294341,-0.25613 -0.294315,-0.34123 -0.521932,-0.52193 -0.227617,-0.18071 -0.686072,-0.4566 -1.051615,-0.73019 -0.365543,-0.27359 -0.637582,-0.54553 -1.233,-1.00356 -0.467605,-0.35971 -1.135765,-0.83632 -1.868103,-1.4459 z" />
  </g>
</svg>
